# xmcd
#
# Track frame offsets: 
#        150
#        8998
#        21739
#        33027
#        45999
#        58023
#        68683
#        81140
#        90911
#        102293
#        113536
#        125857
#        136673
#        148650
#        160423
#        173891
#        187332
#        201658
#        215348
#        227118
#        239063
#        252453
#        264659
#        277574
#        290649
#
# Disc length: 4045 seconds
#
# Revision: 0
# Processed by: cddbd v1.5.2PL0 Copyright (c) Steve Scherf et al.
# Submitted via: ExactAudioCopy v0.99pb1
#
DISCID=720fcb19
DTITLE=Buddy Guy, Otis Rush, Magic Sam - Snakebite [CD Two)
DYEAR=2009
DGENRE=Blues
TTITLE0=21 Days In Jail (Magic Sam)
TTITLE1=Love Me This Way (Magic Sam)
TTITLE2=Magic Rocker (Magic Sam)
TTITLE3=My Love Is Your Love (Magic Sam)
TTITLE4=Mr Charlie (Magic Sam)
TTITLE5=Square Dance Rock Pt 1 (Magic Sam)
TTITLE6=Square Dance Rock Pt 2 (Magic Sam)
TTITLE7=Every night About This Time (Magic Sam)
TTITLE8=Do The Camel Walk (Magic Sam)
TTITLE9=Blue Light Boogie (Magic Sam)
TTITLE10=You Don t Have To Work (Magic Sam)
TTITLE11=Out Of Bad Luck (Magic Sam)
TTITLE12=She Belongs To Me (Magic Sam)
TTITLE13=You Sure You Can't Do (Buddy Guy)
TTITLE14=This Is The End (Buddy Guy)
TTITLE15=I Hope You Come Back Home (Buddy Guy)
TTITLE16=The Way You Been Treating Me (Buddy Guy)
TTITLE17=Sit And Cry (Buddy Guy)
TTITLE18=Try To Quit You Baby (Buddy Guy)
TTITLE19=You Sure Can't Do (Buddy Guy)
TTITLE20=This Is the End (Buddy Guy)
TTITLE21=Good Things (Buddy Guy)
TTITLE22=Too Many Crooks (Buddy Guy)
TTITLE23=Heavy Heart Beat (Buddy Guy)
TTITLE24=Gods Gift To Man (Buddy Guy)
EXTD=
EXTT0=
EXTT1=
EXTT2=
EXTT3=
EXTT4=
EXTT5=
EXTT6=
EXTT7=
EXTT8=
EXTT9=
EXTT10=
EXTT11=
EXTT12=
EXTT13=
EXTT14=
EXTT15=
EXTT16=
EXTT17=
EXTT18=
EXTT19=
EXTT20=
EXTT21=
EXTT22=
EXTT23=
EXTT24=
PLAYORDER=
